<svg width="165" height="166" viewBox="0 0 165 166" fill="none" xmlns="http://www.w3.org/2000/svg">
<circle cx="38.6179" cy="9.09216" r="7.5" transform="rotate(14.0055 38.6179 9.09216)" fill="#EA686D" fill-opacity="0.1"/>
<circle cx="61.9046" cy="14.9005" r="7.5" transform="rotate(14.0055 61.9046 14.9005)" fill="#EA686D" fill-opacity="0.1"/>
<circle cx="85.1909" cy="20.7089" r="7.5" transform="rotate(14.0055 85.1909 20.7089)" fill="#EA686D" fill-opacity="0.1"/>
<circle cx="32.5676" cy="33.349" r="7.5" transform="rotate(14.0055 32.5676 33.349)" fill="#EA686D" fill-opacity="0.1"/>
<circle cx="55.854" cy="39.1573" r="7.5" transform="rotate(14.0055 55.854 39.1573)" fill="#EA686D" fill-opacity="0.1"/>
<circle cx="79.1406" cy="44.9657" r="7.5" transform="rotate(14.0055 79.1406 44.9657)" fill="#EA686D" fill-opacity="0.1"/>
<circle cx="26.5171" cy="57.6058" r="7.5" transform="rotate(14.0055 26.5171 57.6058)" fill="#EA686D" fill-opacity="0.1"/>
<circle cx="49.8037" cy="63.4141" r="7.5" transform="rotate(14.0055 49.8037 63.4141)" fill="#EA686D" fill-opacity="0.1"/>
<circle cx="73.0903" cy="69.2225" r="7.5" transform="rotate(14.0055 73.0903 69.2225)" fill="#EA686D" fill-opacity="0.1"/>
<circle cx="108.478" cy="26.5172" r="7.5" transform="rotate(14.0055 108.478 26.5172)" fill="#EA686D" fill-opacity="0.1"/>
<circle cx="131.764" cy="32.3256" r="7.5" transform="rotate(14.0055 131.764 32.3256)" fill="#EA686D" fill-opacity="0.1"/>
<circle cx="155.051" cy="38.134" r="7.5" transform="rotate(14.0055 155.051 38.134)" fill="#EA686D" fill-opacity="0.1"/>
<circle cx="102.427" cy="50.774" r="7.5" transform="rotate(14.0055 102.427 50.774)" fill="#EA686D" fill-opacity="0.1"/>
<circle cx="125.714" cy="56.5824" r="7.5" transform="rotate(14.0055 125.714 56.5824)" fill="#EA686D" fill-opacity="0.1"/>
<circle cx="149" cy="62.3908" r="7.5" transform="rotate(14.0055 149 62.3908)" fill="#EA686D" fill-opacity="0.1"/>
<circle cx="96.3767" cy="75.0309" r="7.5" transform="rotate(14.0055 96.3767 75.0309)" fill="#EA686D" fill-opacity="0.1"/>
<circle cx="119.663" cy="80.8392" r="7.5" transform="rotate(14.0055 119.663 80.8392)" fill="#EA686D" fill-opacity="0.1"/>
<circle cx="142.95" cy="86.6476" r="7.5" transform="rotate(14.0055 142.95 86.6476)" fill="#EA686D" fill-opacity="0.1"/>
<circle cx="21.1929" cy="78.9518" r="7.5" transform="rotate(14.0055 21.1929 78.9518)" fill="#EA686D" fill-opacity="0.1"/>
<circle cx="44.4795" cy="84.7601" r="7.5" transform="rotate(14.0055 44.4795 84.7601)" fill="#EA686D" fill-opacity="0.1"/>
<circle cx="67.7659" cy="90.5685" r="7.5" transform="rotate(14.0055 67.7659 90.5685)" fill="#EA686D" fill-opacity="0.1"/>
<circle cx="15.1426" cy="103.209" r="7.5" transform="rotate(14.0055 15.1426 103.209)" fill="#EA686D" fill-opacity="0.1"/>
<circle cx="38.429" cy="109.017" r="7.5" transform="rotate(14.0055 38.429 109.017)" fill="#EA686D" fill-opacity="0.1"/>
<circle cx="61.7156" cy="114.825" r="7.5" transform="rotate(14.0055 61.7156 114.825)" fill="#EA686D" fill-opacity="0.1"/>
<circle cx="9.09206" cy="127.465" r="7.5" transform="rotate(14.0055 9.09206 127.465)" fill="#EA686D" fill-opacity="0.1"/>
<circle cx="32.3787" cy="133.274" r="7.5" transform="rotate(14.0055 32.3787 133.274)" fill="#EA686D" fill-opacity="0.1"/>
<circle cx="55.6653" cy="139.082" r="7.5" transform="rotate(14.0055 55.6653 139.082)" fill="#EA686D" fill-opacity="0.1"/>
<circle cx="91.0525" cy="96.3769" r="7.5" transform="rotate(14.0055 91.0525 96.3769)" fill="#EA686D" fill-opacity="0.1"/>
<circle cx="114.339" cy="102.185" r="7.5" transform="rotate(14.0055 114.339 102.185)" fill="#EA686D" fill-opacity="0.1"/>
<circle cx="137.626" cy="107.994" r="7.5" transform="rotate(14.0055 137.626 107.994)" fill="#EA686D" fill-opacity="0.1"/>
<circle cx="85.0022" cy="120.634" r="7.5" transform="rotate(14.0055 85.0022 120.634)" fill="#EA686D" fill-opacity="0.1"/>
<circle cx="108.289" cy="126.442" r="7.5" transform="rotate(14.0055 108.289 126.442)" fill="#EA686D" fill-opacity="0.1"/>
<circle cx="131.575" cy="132.25" r="7.5" transform="rotate(14.0055 131.575 132.25)" fill="#EA686D" fill-opacity="0.1"/>
<circle cx="78.9517" cy="144.891" r="7.5" transform="rotate(14.0055 78.9517 144.891)" fill="#EA686D" fill-opacity="0.1"/>
<circle cx="102.238" cy="150.699" r="7.5" transform="rotate(14.0055 102.238 150.699)" fill="#EA686D" fill-opacity="0.1"/>
<circle cx="125.525" cy="156.507" r="7.5" transform="rotate(14.0055 125.525 156.507)" fill="#EA686D" fill-opacity="0.1"/>
</svg>
